# xmcd
#
# Track frame offsets: 
#        150
#        20144
#        40197
#        60745
#        78855
#        102135
#        123283
#        140526
#        163750
#        180204
#        200733
#        220756
#
# Disc length: 3215 seconds
#
# Revision: 0
# Processed by: cddbd v1.5.2PL0 Copyright (c) Steve Scherf et al.
# Submitted via: ExactAudioCopyFreeDBPlugin 1.0
#
DISCID=a00c8d0c
DTITLE=Various Artist - Tinh dau kho quen
DYEAR=1900
DGENRE=
TTITLE0=Minh Tuyet - Tinh dau kho quen
TTITLE1=Luu Minh Thang - Canh chim lac loi
TTITLE2=Tu Quyen - Giac mo tan roi
TTITLE3=Luu Minh Thang - Hoi moi xa
TTITLE4=Minh Tuyet - Nhung chieu co don
TTITLE5=Tu Quyen - Thi si duoi vang traqng
TTITLE6=Luu Minh Thang - Song trong co don
TTITLE7=Minh Tuyet - Hoi nguoi tinh
TTITLE8=Luu Minh Thang - Bong bien
TTITLE9=Tu Quyen - Yeu anh nao nguoi
TTITLE10=Tinh dau kho quen
TTITLE11=Giac mo tan roi
EXTD=
EXTT0=
EXTT1=
EXTT2=
EXTT3=
EXTT4=
EXTT5=
EXTT6=
EXTT7=
EXTT8=
EXTT9=
EXTT10=
EXTT11=
PLAYORDER=
